<svg width="386" height="215" viewBox="0 0 386 215" fill="none" xmlns="http://www.w3.org/2000/svg">
<path d="M357.275 109.027C345.335 109.027 337.451 100.917 337.451 87.0632C337.451 67.2392 352.319 48.6543 369.552 48.6543C376.085 48.6543 381.604 51.3576 381.604 58.2284C381.604 70.2804 364.483 77.9397 344.997 78.1649C344.547 80.5303 344.321 83.0083 344.321 85.3736C344.321 97.3131 350.066 105.198 360.09 105.198C367.637 105.198 374.283 100.692 380.027 92.4697L380.815 93.7087C375.522 102.269 367.975 109.027 357.275 109.027ZM345.335 76.3628C363.695 76.0249 374.733 68.7035 374.733 58.2284C374.733 54.0608 372.931 50.6817 367.862 50.6817C358.288 50.6817 348.489 62.5085 345.335 76.3628Z" fill="white"/>
<path d="M310.36 109.027C299.997 109.027 295.041 104.297 295.041 100.58C295.041 98.5521 296.393 96.9752 298.533 96.9752C303.714 96.9752 303.151 106.887 312.95 106.887C319.596 106.887 324.214 102.382 324.214 95.8488C324.214 89.3159 319.596 84.9231 313.852 79.7418L311.148 77.2639C306.868 73.3216 303.038 69.0414 303.038 63.0717C303.038 55.863 308.67 48.6543 319.483 48.6543C326.805 48.6543 333.563 52.0334 333.563 56.2009C333.563 58.0031 332.211 59.1294 330.522 59.1294C325.791 59.1294 324.89 50.7944 317.456 50.7944C312.275 50.7944 307.544 54.3987 307.544 59.9179C307.544 64.7612 311.148 68.4782 315.654 72.6458L318.47 75.2364C324.327 80.6429 329.621 86.1621 329.621 93.7087C329.621 102.269 322.862 109.027 310.36 109.027Z" fill="white"/>
<path d="M247.717 109.027C239.946 109.027 240.171 101.255 241.522 94.0466L247.605 60.4811C248.393 56.3135 247.83 53.9482 245.577 53.9482C243.325 53.9482 240.058 56.4262 236.229 61.1569L235.44 60.1432C239.833 53.6103 244.113 48.6543 248.956 48.6543C252.223 48.6543 254.138 50.907 254.138 54.9619C254.138 56.4262 253.912 58.341 253.575 60.0305L247.492 93.934C246.478 99.3405 247.042 103.508 251.322 103.508C258.868 103.508 269.682 90.3296 276.44 75.349C279.819 67.8024 281.621 60.819 282.635 54.7366L283.31 50.6817H289.28L280.72 97.2004C279.931 101.368 280.495 103.733 282.747 103.733C285 103.733 288.266 101.255 292.096 96.5246L292.885 97.5383C288.492 104.071 284.212 109.027 279.368 109.027C276.102 109.027 274.187 106.775 274.187 102.72C274.187 101.255 274.525 98.7773 275.088 95.6235L278.805 75.1238H278.354C272.723 88.7527 260.333 109.027 247.717 109.027Z" fill="white"/>
<path d="M199.373 109.027C187.433 109.027 180.675 100.467 180.675 86.9506C180.675 68.7035 192.84 48.6543 210.862 48.6543C222.801 48.6543 229.559 57.2146 229.559 70.731C229.559 88.978 217.395 109.027 199.373 109.027ZM187.771 84.6978C187.771 94.8351 190.813 106.887 201.626 106.887C213.903 106.887 222.463 91.0054 222.463 72.9837C222.463 62.8464 219.422 50.7944 208.609 50.7944C196.219 50.7944 187.771 66.6761 187.771 84.6978Z" fill="white"/>
<path d="M97.0923 105.198C104.526 105.198 106.666 103.847 109.144 90.7809L113.087 69.6054C117.254 47.1908 125.026 31.8723 134.487 22.1856C126.378 19.7076 118.155 17.4549 110.271 17.4549C83.0128 17.4549 66.7932 35.0261 66.7932 56.8775C66.7932 60.0313 67.1311 62.8472 67.8069 65.5505C81.6611 68.1411 93.6006 71.5202 93.6006 78.6162C93.6006 81.6574 91.4605 84.586 85.0402 84.586C75.8041 84.586 66.3426 78.6162 62.6256 67.4653C61.6119 67.3526 60.5982 67.24 59.3592 67.0147C30.1865 62.8472 0 57.6659 0 35.8145C0 22.6361 11.2636 15.2021 18.0218 15.2021C20.725 15.2021 22.0767 16.3285 22.0767 18.1307C22.0767 19.4823 21.0629 20.3834 19.7113 20.3834C17.5712 20.3834 16.5575 18.356 13.9669 18.356C9.46143 18.356 5.6318 24.4383 5.6318 31.7596C5.6318 52.4847 33.9035 59.4681 60.035 64.1988L61.8372 64.5367C61.274 62.0588 60.9361 59.4681 60.9361 56.6522C60.9361 31.5344 83.238 15.5401 111.284 15.5401C118.718 15.5401 127.842 17.5675 137.078 19.7076C145.638 12.161 155.325 8.89453 165.012 8.89453C176.501 8.89453 182.921 13.2873 182.921 19.3697C182.921 24.4383 178.303 30.1827 166.814 30.1827C158.141 30.1827 148.342 26.691 138.204 23.4246C131.108 31.647 125.026 44.6002 120.633 64.4241H162.083L163.322 57.7786C165.35 46.9655 169.292 38.5178 174.811 33.5618L175.487 34.2376C173.91 37.9546 172.446 43.2485 170.193 55.5259L163.66 90.7809C161.295 103.847 163.097 105.198 170.531 105.198V107.001H145.188V105.198C152.622 105.198 154.875 103.847 157.24 90.7809L161.745 66.5642H120.183C119.845 68.0285 119.507 69.4927 119.282 70.957L115.565 90.7809C113.087 103.847 115.001 105.198 122.435 105.198V107.001H97.0923V105.198ZM68.5954 68.2537C71.7492 77.2646 78.5073 82.7838 85.8287 82.7838C89.8836 82.7838 91.7984 81.0942 91.7984 78.7289C91.7984 72.8718 81.4359 70.2812 68.5954 68.2537ZM140.795 20.6087C150.482 22.974 160.056 25.2268 167.49 25.2268C175.825 25.2268 179.992 22.4109 179.992 18.5812C179.992 14.4137 174.699 10.8093 165.012 10.8093C156.677 10.8093 148.229 13.2873 140.795 20.6087Z" fill="white"/>
<path d="M371.895 214.783C369.192 214.783 367.051 212.643 367.051 209.94C367.051 207.236 369.192 205.209 371.895 205.209C374.598 205.209 376.625 207.236 376.625 209.94C376.625 212.643 374.598 214.783 371.895 214.783Z" fill="white"/>
<path d="M319.075 214.445L317.836 194.733L319.75 194.508C322.116 205.997 327.748 212.755 337.997 212.755C346.445 212.755 352.077 208.137 352.077 200.252C352.077 193.044 347.234 188.989 336.646 185.61C325.833 182.118 318.849 177.613 318.849 169.052C318.849 160.605 325.607 154.41 336.533 154.41C343.066 154.41 346.67 157 348.698 157C350.275 157 350.613 155.311 350.5 153.508L352.077 153.283L356.357 172.319L354.442 172.657C351.739 163.195 345.657 156.437 336.195 156.437C328.987 156.437 324.031 160.154 324.031 166.8C324.031 171.981 327.184 176.486 339.349 180.316C352.077 184.371 357.371 190.228 357.371 198.225C357.371 208.475 348.698 214.782 338.11 214.782C330.113 214.782 325.945 211.178 323.242 211.178C321.553 211.178 320.652 212.417 320.652 214.332L319.075 214.445Z" fill="white"/>
<path d="M276.155 210.841C283.026 210.841 285.053 209.489 285.053 196.423V163.984H276.155V162.069C281.449 162.069 287.193 159.366 288.883 154.41H291.023V168.377H291.361C295.303 161.281 301.048 154.861 307.468 154.861C311.297 154.861 313.888 157.113 313.888 160.042C313.888 162.182 312.424 163.872 310.284 163.872C307.355 163.872 306.229 160.493 302.962 160.493C298.682 160.493 294.627 165.448 291.023 172.77V196.423C291.023 209.489 292.375 210.841 300.034 210.841H302.174V212.756H276.155V210.841Z" fill="white"/>
<path d="M219.738 214.783C214.444 214.783 211.515 211.291 211.515 205.096C211.515 197.55 215.908 188.651 222.779 178.401C219.512 166.462 214.331 153.058 209.375 141.569L207.122 149.341C203.856 160.267 199.576 173.333 194.169 184.033C185.496 201.154 174.12 214.783 160.604 214.783C150.579 214.783 144.947 207.349 144.947 199.352C144.947 191.017 150.917 185.385 156.098 182.794L156.661 183.921C153.62 185.723 149.115 190.679 149.115 197.099C149.115 202.843 152.719 208.926 161.617 208.926C172.543 208.926 182.568 199.802 191.466 183.245C197.661 171.643 202.166 158.577 205.095 148.778L207.911 139.317H198.562C185.271 139.317 170.741 145.399 170.741 159.704C170.741 164.097 172.092 168.94 175.246 174.009L174.12 174.91C169.952 169.616 167.587 163.533 167.587 157.564C167.587 144.273 178.963 133.91 199.576 133.91H212.641C216.809 142.921 223.117 157.902 227.509 172.094C236.52 159.479 250.6 143.484 261.976 133.91H278.083V135.712C270.536 135.712 267.833 137.064 265.468 150.13L255.894 203.181C255.105 207.349 255.781 209.489 258.034 209.489C260.399 209.489 263.553 207.011 267.383 202.28L268.171 203.294C263.778 209.827 259.723 214.783 254.88 214.783C251.388 214.783 249.136 212.08 249.136 207.799C249.136 206.11 249.473 203.745 249.924 201.041L261.3 137.064C251.05 146.187 237.421 161.506 228.185 174.572C230.776 183.132 232.465 191.355 232.465 197.55C232.465 209.376 226.27 214.783 219.738 214.783ZM213.768 204.758C213.768 209.376 215.795 212.305 218.949 212.305C223.455 212.305 226.045 206.223 226.045 198.225C226.045 193.269 225.031 187.412 223.455 181.105C217.935 189.44 213.768 197.775 213.768 204.758Z" fill="white"/>
<path d="M117.799 166.543C120.558 166.543 121.394 166.042 121.394 161.402V143.847C121.394 139.291 120.558 138.789 117.799 138.789V138.037H134.769C136.149 138.037 136.859 137.786 136.483 136.448L137.194 136.281L139.534 144.808L138.782 145.059C136.734 140.461 135.647 138.956 130.422 138.956H128.917C125.615 138.956 125.072 139.374 125.072 142.258V151.914H128.583C132.679 151.914 133.223 150.66 133.223 148.068H134.059V157.306H133.223C133.223 153.837 132.596 152.833 128.583 152.833H125.072V161.319C125.072 166.042 125.908 166.543 129.21 166.543V167.296H117.799V166.543Z" fill="white"/>
<path d="M98.5641 168.047C90.4552 168.047 83.8093 162.53 83.8093 153.083C83.8093 142.968 90.5388 137.283 99.2329 137.283C107.342 137.283 113.946 142.717 113.946 152.205C113.946 162.321 107.258 168.047 98.5641 168.047ZM88.0727 152.749C88.0727 161.276 92.169 167.127 98.8985 167.127C105.461 167.127 109.683 161.694 109.683 152.498C109.683 143.971 105.628 138.203 98.8567 138.203C92.2944 138.203 88.0727 143.595 88.0727 152.749Z" fill="white"/>
</svg>
