<svg width="1107" height="1107" viewBox="0 0 1107 1107" fill="none" xmlns="http://www.w3.org/2000/svg">
<path d="M291.999 525.811C282.047 525.811 276.542 519.247 276.542 507.601C276.542 493.414 284.8 476.686 297.717 457.418C291.576 434.973 281.836 409.775 272.519 388.177L268.284 402.787C262.143 423.326 254.097 447.889 243.933 468.005C227.629 500.19 206.242 525.811 180.833 525.811C161.988 525.811 151.4 511.836 151.4 496.802C151.4 481.133 162.623 470.546 172.363 465.676L173.422 467.793C167.705 471.181 159.235 480.498 159.235 492.567C159.235 503.366 166.011 514.801 182.739 514.801C203.278 514.801 222.123 497.649 238.851 466.523C250.497 444.713 258.967 420.15 264.473 401.728L269.766 383.942H252.191C227.205 383.942 199.89 395.376 199.89 422.268C199.89 430.526 202.431 439.631 208.36 449.159L206.242 450.853C198.408 440.901 193.961 429.467 193.961 418.245C193.961 393.259 215.348 373.778 254.097 373.778H278.66C286.494 390.718 298.352 418.88 306.61 445.56C323.55 421.844 350.018 391.776 371.404 373.778H401.684V377.166C387.497 377.166 382.415 379.707 377.968 404.269L359.97 504.002C358.488 511.836 359.758 515.859 363.993 515.859C368.44 515.859 374.369 511.201 381.568 502.308L383.05 504.213C374.792 516.495 367.169 525.811 358.064 525.811C351.5 525.811 347.265 520.73 347.265 512.683C347.265 509.507 347.9 505.06 348.747 499.978L370.134 379.707C350.865 396.858 325.244 425.656 307.88 450.218C312.751 466.311 315.927 481.768 315.927 493.414C315.927 515.648 304.281 525.811 291.999 525.811ZM280.777 506.966C280.777 515.648 284.588 521.153 290.517 521.153C298.987 521.153 303.857 509.719 303.857 494.685C303.857 485.368 301.952 474.357 298.987 462.499C288.612 478.169 280.777 493.838 280.777 506.966ZM400.177 518.4C413.093 518.4 416.905 515.859 416.905 491.297V430.314H400.177V426.714C410.129 426.714 420.928 421.633 424.104 412.316H428.127V438.572H428.762C436.174 425.232 446.973 413.163 459.042 413.163C466.241 413.163 471.112 417.398 471.112 422.903C471.112 426.926 468.359 430.102 464.336 430.102C458.83 430.102 456.713 423.75 450.572 423.75C442.526 423.75 434.903 433.067 428.127 446.83V491.297C428.127 515.859 430.668 518.4 445.067 518.4H449.09V522H400.177V518.4ZM488.24 525.811C483.158 525.811 479.135 521.788 479.135 516.706C479.135 511.624 483.158 507.813 488.24 507.813C493.322 507.813 497.133 511.624 497.133 516.706C497.133 521.788 493.322 525.811 488.24 525.811Z" fill="black"/>
<path d="M320.021 737.053C307.81 737.053 303.061 730.778 296.786 730.778C293.733 730.778 291.189 732.304 288.475 735.018L287.288 734C290.85 727.386 292.546 720.771 294.581 709.578L308.149 634.445C309.845 625.456 312.05 618.163 314.763 612.397C282.878 610.531 215.038 600.355 187.733 600.355C159.918 600.355 143.976 610.531 143.976 626.474C143.976 634.954 148.555 640.89 156.526 643.603C160.088 644.79 161.784 646.317 161.784 648.691C161.784 651.066 160.088 652.931 156.866 652.931C149.234 652.931 141.262 641.907 141.262 626.813C141.262 606.122 155.848 591.536 187.563 591.536C219.787 591.536 282.37 606.8 316.459 609.174C323.582 595.776 333.08 591.366 341.221 591.366C348.853 591.366 351.566 595.437 351.566 599.338C351.566 606.8 341.221 612.397 323.413 612.566C320.869 618.333 318.664 625.795 316.968 635.123L314.424 649.2C312.558 659.885 310.523 670.739 308.318 681.424H308.997C316.798 665.821 330.366 646.147 347.496 646.147C360.046 646.147 368.018 656.493 368.018 675.149C368.018 704.49 348.344 737.053 320.021 737.053ZM300.856 723.485C305.435 728.742 312.05 734.339 321.378 734.339C343.256 734.339 357.502 701.776 357.502 677.184C357.502 662.09 352.414 652.931 343.595 652.931C333.419 652.931 320.36 665.482 312.219 681.254C307.64 690.243 305.605 697.706 303.57 708.73L300.856 723.485ZM324.77 609.514C339.864 609.514 348.853 605.274 348.853 599.677C348.853 596.794 346.478 594.928 342.408 594.928C336.302 594.928 330.027 598.998 324.77 609.514ZM349.582 779.453C333.47 779.453 316.849 773.686 316.849 764.358C316.849 760.458 319.562 757.744 323.294 757.744C333.13 757.744 329.738 775.891 353.482 775.891C374.682 775.891 405.21 764.698 405.21 712.63C405.21 690.243 400.462 654.458 387.911 654.458C383.841 654.458 379.262 658.189 376.378 667.008L374.682 666.16C377.396 654.458 382.484 646.147 390.625 646.147C408.433 646.147 414.03 684.646 414.03 710.256C414.03 721.45 413.012 732.134 410.129 742.48L410.807 742.65C425.054 725.011 440.148 696.518 440.148 676.336C440.148 659.037 428.785 659.546 428.785 651.914C428.785 648.182 431.498 646.147 434.721 646.147C439.809 646.147 445.914 651.405 445.914 666.499C445.914 687.869 433.534 717.379 415.726 740.614C397.07 764.867 375.7 779.453 349.582 779.453ZM637.846 737.811C627.894 737.811 622.389 731.247 622.389 719.601C622.389 705.414 630.647 688.686 643.563 669.418C637.423 646.973 627.682 621.775 618.366 600.177L614.131 614.787C607.99 635.326 599.944 659.889 589.78 680.005C573.476 712.19 552.089 737.811 526.68 737.811C507.834 737.811 497.247 723.836 497.247 708.802C497.247 693.133 508.47 682.546 518.21 677.676L519.269 679.793C513.551 683.181 505.082 692.498 505.082 704.567C505.082 715.366 511.858 726.801 528.585 726.801C549.125 726.801 567.97 709.649 584.698 678.523C596.344 656.713 604.814 632.15 610.319 613.728L615.613 595.942H598.038C573.052 595.942 545.737 607.376 545.737 634.268C545.737 642.526 548.278 651.631 554.207 661.159L552.089 662.853C544.255 652.901 539.808 641.467 539.808 630.245C539.808 605.259 561.194 585.778 599.944 585.778H624.506C632.341 602.718 644.199 630.88 652.457 657.56C669.396 633.844 695.865 603.776 717.251 585.778H747.531V589.166C733.344 589.166 728.262 591.707 723.815 616.269L705.817 716.002C704.334 723.836 705.605 727.859 709.84 727.859C714.286 727.859 720.215 723.201 727.415 714.308L728.897 716.213C720.639 728.495 713.016 737.811 703.911 737.811C697.347 737.811 693.112 732.73 693.112 724.683C693.112 721.507 693.747 717.06 694.594 711.978L715.98 591.707C696.712 608.858 671.09 637.656 653.727 662.218C658.597 678.311 661.773 693.768 661.773 705.414C661.773 727.648 650.127 737.811 637.846 737.811ZM626.624 718.966C626.624 727.648 630.435 733.153 636.364 733.153C644.834 733.153 649.704 721.719 649.704 706.685C649.704 697.368 647.798 686.357 644.834 674.499C634.458 690.169 626.624 705.838 626.624 718.966ZM746.023 730.4C758.94 730.4 762.751 727.859 762.751 703.297V642.314H746.023V638.714C755.976 638.714 766.775 633.633 769.951 624.316H773.974V650.572H774.609C782.02 637.232 792.819 625.163 804.889 625.163C812.088 625.163 816.958 629.398 816.958 634.903C816.958 638.926 814.206 642.102 810.182 642.102C804.677 642.102 802.56 635.75 796.419 635.75C788.373 635.75 780.75 645.067 773.974 658.83V703.297C773.974 727.859 776.515 730.4 790.914 730.4H794.937V734H746.023V730.4ZM828.826 737.176L826.497 700.121L830.096 699.697C834.543 721.295 845.13 734 864.399 734C880.28 734 890.867 725.318 890.867 710.496C890.867 696.944 881.762 689.322 861.858 682.969C841.531 676.405 828.403 667.935 828.403 651.843C828.403 635.962 841.107 624.316 861.647 624.316C873.928 624.316 880.704 629.186 884.515 629.186C887.48 629.186 888.115 626.01 887.903 622.622L890.867 622.198L898.914 657.983L895.314 658.619C890.232 640.832 878.798 628.127 861.011 628.127C847.46 628.127 838.143 635.115 838.143 647.608C838.143 657.348 844.072 665.818 866.94 673.017C890.867 680.64 900.82 691.651 900.82 706.685C900.82 725.954 884.515 737.811 864.611 737.811C849.577 737.811 841.742 731.036 836.661 731.036C833.484 731.036 831.79 733.365 831.79 736.964L828.826 737.176ZM930.241 737.811C925.159 737.811 921.136 733.788 921.136 728.706C921.136 723.624 925.159 719.813 930.241 719.813C935.322 719.813 939.134 723.624 939.134 728.706C939.134 733.788 935.322 737.811 930.241 737.811Z" fill="black" fill-opacity="0.4"/>
</svg>
