<?xml version="1.0" encoding="UTF-8"?>
<svg id="Layer_1" xmlns="http://www.w3.org/2000/svg" version="1.1" viewBox="0 0 4096 4096">
  <!-- Generator: Adobe Illustrator 29.6.1, SVG Export Plug-In . SVG Version: 2.1.1 Build 9)  -->
  <path d="M1621.6,2056.4c-2.8-2.5-11.2-6.2-11.5-6.8-.3-.4-.4-1-.5-1.6,0-.6.2-1.1.5-1.6.3-.6,8.7-4.3,11.5-6.8,88.9-77.3,83-222.1,74.2-329.7-9.9-119.3-33.9-243.7-60.8-360.3-65.3-283.7-161.8-558.8-255.3-833.9l-4-4.6c-202.3-4.6-413.5-9.8-594.4,93.1-193.7,110.2-299.3,323-240.7,544.3,18.3,69.1,53.4,132.7,97.6,188.3,4.8,1.8,30.2-11.5,30.7-13.9-53-119.3-67.1-251.8-24.6-376.8,77.5-227.8,310.9-308.5,532.6-318.1,27.5-1.2,55.3,1.1,82.8,0-51.1,177.5-107.7,353.9-175.8,525.6-75.7,190.9-166.5,374.8-289.5,539.7-73.9,99-284.9,358.2-414.4,204.4-95.9-113.9-54.9-328.2,36.5-434,3.5-4.1,25-22.8,24.6-24.5-6.6-6.5-23.3-21.5-32.1-17.4-2.9,1.4-25.6,21.7-30.2,25.8-89.8,80.8-141.2,196.8-146.1,317.9-4.4,109.3,49.5,237.2,155.5,280.4,1.1-.2,1.5.7,1.7,1.8-.2,1.1-.6,2-1.7,1.8-106,43.2-159.9,171.2-155.5,280.4,4.9,121.1,56.4,237.1,146.1,317.9,4.5,4.1,27.2,24.4,30.2,25.8,8.8,4.1,25.5-10.9,32.1-17.4.4-1.7-21.1-20.4-24.6-24.5-91.4-105.8-132.4-320.1-36.5-434,129.5-153.8,340.5,105.3,414.4,204.3,123.1,164.9,213.8,348.8,289.5,539.7,68,171.7,124.7,348.1,175.8,525.6-27.5-1-55.3,1.3-82.8,0-221.7-9.7-455.1-90.3-532.6-318.1-42.5-125-28.4-257.5,24.6-376.8-.5-2.4-25.8-15.6-30.7-13.9-44.1,55.7-79.3,119.3-97.6,188.3-58.6,221.4,47,434.1,240.7,544.3,180.8,102.9,392.1,97.7,594.4,93.1l4-4.6c93.5-275,190-550.2,255.3-833.9,26.8-116.6,50.9-241,60.8-360.3,8.9-107.6,14.8-252.4-74.2-329.7v.7h0ZM1506.4,1482.6c-46.5,100.5-103.2,197.8-131.9,305.8-23.3,87.7-36.5,201.4,48.4,259.7-84.9,58.2-71.7,172-48.4,259.6,28.7,108,85.4,205.3,131.9,305.8l18.7-86.3c-53-108.1-119.5-238.9-108.7-360.1,7-78.9,88.8-125,140.5-50.3,42.1,60.9,33.3,196.8,27,269.4-3.3,38.2-8.4,77.5-14.8,116.9-11.4,71.1-26.8,142.9-42.5,210.3-2.3,9.8-4.6,19.5-7,29.2-56.3,234.1-131.5,463.1-202.1,693-4,4.3-7.1-11.5-7.5-12.9-83.8-283.7-162.2-558.3-287.1-827.9-77.4-167.1-227.5-426.2-390.6-518.1l-59.5-28.6,59.5-28.6c163.1-91.9,313.2-351,390.6-518.1,124.8-269.6,203.3-544.2,287.1-827.9.4-1.4,3.5-17.2,7.5-12.9,70.7,229.8,145.8,458.9,202.1,693,2.4,9.7,4.7,19.5,7,29.2,15.8,67.4,31.1,139.2,42.5,210.3,6.3,39.4,11.5,78.7,14.8,116.9,6.3,72.6,15.1,208.5-27,269.4-51.6,74.6-133.5,28.6-140.5-50.3-10.8-121.2,55.7-252,108.7-360.1l-18.7-86.3h0Z"/>
  <path d="M1744.1,1186.9l15.8,71.4c-26.9,32.5-58.1,61.4-82.4,96l-17.9-71.4,84.5-96Z"/>
  <path d="M1744.1,2909.1l15.8-71.4c-26.9-32.5-58.1-61.4-82.4-96l-17.9,71.4,84.5,96Z"/>
  <path d="M2473.4,2386c9.9,119.3,33.9,243.7,60.7,360.3,65.3,283.7,161.8,558.8,255.3,833.9l4,4.6c202.3,4.6,413.5,9.8,594.4-93.1,193.7-110.2,299.3-323,240.7-544.3-18.3-69.1-53.4-132.7-97.6-188.3-4.8-1.8-30.2,11.5-30.7,13.9,53,119.3,67.1,251.8,24.6,376.8-77.5,227.8-310.9,308.5-532.6,318.1-27.5,1.2-55.3-1-82.8,0,51.1-177.5,107.7-353.9,175.8-525.6,75.7-190.9,166.5-374.8,289.5-539.7,73.9-99,284.9-358.2,414.4-204.3,95.9,113.9,54.9,328.2-36.5,434-3.5,4.1-25,22.8-24.6,24.5,6.6,6.5,23.3,21.5,32.1,17.4,2.9-1.4,25.6-21.7,30.2-25.8,89.8-80.8,141.2-196.8,146.1-317.9,4.4-109.3-49.5-237.2-155.5-280.4-1.1.2-1.5-.7-1.7-1.8.2-1.1.6-2,1.7-1.8,106-43.2,159.9-171.2,155.5-280.4-4.9-121.1-56.4-237.1-146.1-317.9-4.5-4.1-27.2-24.4-30.2-25.8-8.8-4.1-25.5,10.9-32.1,17.4-.4,1.7,21.1,20.4,24.6,24.5,91.4,105.8,132.4,320.1,36.5,434-129.5,153.8-340.5-105.4-414.4-204.4-123.1-164.9-213.8-348.8-289.5-539.7-68-171.7-124.7-348.1-175.8-525.6,27.5,1,55.3-1.3,82.8,0,221.7,9.6,455.1,90.3,532.6,318.1,42.5,125,28.4,257.5-24.6,376.8.5,2.4,25.8,15.6,30.7,13.9,44.1-55.7,79.3-119.3,97.6-188.3,58.6-221.4-47-434.2-240.7-544.3-180.8-102.9-392.1-97.7-594.4-93.1l-4,4.6c-93.5,275.1-190,550.2-255.3,833.9-26.8,116.6-50.9,241-60.8,360.3-8.9,107.6-14.8,252.4,74.2,329.7,2.8,2.5,11.2,6.2,11.5,6.8.3.5.4,1,.5,1.6,0,.6-.2,1.1-.5,1.6-.3.6-8.7,4.3-11.5,6.8-88.9,77.3-83,222.1-74.2,329.7v-.7h.1ZM2644,1568.9c53,108.1,119.5,238.9,108.7,360.1-7,78.9-88.8,125-140.5,50.3-42.1-60.9-33.3-196.8-27-269.4,3.3-38.2,8.4-77.5,14.8-116.9,11.4-71.1,26.8-142.9,42.5-210.3,2.3-9.8,4.6-19.5,7-29.2,56.3-234.1,131.5-463.1,202.1-693,4-4.3,7.1,11.5,7.5,12.9,83.8,283.7,162.2,558.3,287.1,827.9,77.4,167.1,227.5,426.2,390.6,518.1l59.5,28.6-59.5,28.6c-163.1,91.9-313.3,350.9-390.6,518.1-124.8,269.6-203.3,544.2-287.1,827.9-.4,1.4-3.5,17.2-7.5,12.9-70.7-229.8-145.8-458.9-202.1-693-2.4-9.7-4.7-19.5-7-29.3-15.7-67.5-31.1-139.2-42.5-210.3-6.3-39.4-11.5-78.7-14.8-116.9-6.3-72.6-15.1-208.5,27-269.4,51.6-74.6,133.5-28.6,140.5,50.3,10.8,121.2-55.7,252-108.7,360.1l18.7,86.3c46.5-100.5,103.2-197.8,131.9-305.8,23.3-87.7,36.5-201.4-48.4-259.6,84.9-58.2,71.7-172,48.4-259.7-28.7-108-85.4-205.3-131.9-305.8l-18.7,86.3v.2h0Z"/>
  <path d="M2153.6,918.9l-43.3,43.3,135,139.5,15.5-71.3-107.2-111.5ZM2675.3,503.5h-258.8l-326.9,337.7-.4.4-47.9,50.4-3,3.1-130.2,135.3,15.5,71.3,143.7-148.5c1.8-1.6,3.5-3.1,5.2-4.7,1.4-1.3,5.3-5,8.5-7.7l46.6-48.8,3.2-3.2,252.3-253.8c-11.6,57.3-26.2,114.1-38.1,171.3-11.1,53.8-22.2,107.8-32.9,161.9-12.9,64.9-25.5,130.1-37.4,195.4-32.5,178.6-60.1,358.3-76.3,537.9-3.8,41.9-7.6,85.2-11,129,11.2,24.9,27,47.8,46.9,67.7,20.1,20.1,43.3,36,68.6,47.2,15-403.9,82.6-811.2,175.8-1203.4,22.4-94.3,38.5-177.4,146.4-203.8,10.6-2.6,39.5-4.7,45.9-7.8,7.3-3.5,3.3-19.9,4.3-26.9ZM1752.7,503.4h-258.9c.9,7-3,23.4,4.3,26.9,6.4,3,35.3,5.2,45.9,7.8,108,26.3,124,109.4,146.4,203.8,93.4,392.3,160.8,799.6,175.8,1203.5,25.2-11.2,48.4-27.1,68.5-47.2,19.8-19.9,35.6-42.7,46.8-67.6-3.4-43.9-7.2-87.2-11.1-129.2-16.2-179.6-43.8-359.4-76.3-537.9-11.9-65.3-24.5-130.5-37.4-195.4-10.8-54.2-21.8-108.1-32.9-161.9-11.8-57.3-26.4-114-38.1-171.3l228.7,230.1,44.8-44.8h.2l-306.7-316.8ZM2245.3,2994.6l-143.7,148.5c-1.8,1.6-3.5,3.1-5.2,4.7-2,1.8-8.9,8.4-11.9,10.3l-43.3,46.1-2.3,2.4-253.2,254.7c11.6-57.3,26.2-114.1,38.1-171.4,11.1-53.8,22.2-107.8,32.9-161.9,12.9-64.9,25.5-130.1,37.4-195.4,32.5-178.6,60.1-358.4,76.3-537.9,3.8-42.1,7.6-85.6,11-129.6-11.2-24.8-26.9-47.6-46.7-67.4-20.1-20.1-43.3-36-68.5-47.2-15,403.8-82.6,811.1-175.8,1203.3-22.4,94.3-38.5,177.4-146.4,203.7-10.6,2.6-39.5,4.7-45.9,7.8-7.3,3.5-3.3,19.9-4.3,26.9h258.9l328-338.8,47-49.2,2.9-3,130.2-135.4-15.5-71.3ZM2671.1,3565.5h0c-6.4-3.1-35.3-5.3-45.9-7.9-108-26.3-124-109.4-146.4-203.7-93.3-392.3-160.7-799.5-175.8-1203.4-25.3,11.2-48.6,27.1-68.7,47.3-19.9,19.9-35.6,42.8-46.8,67.7,3.4,43.9,7.2,87.3,11,129.4,16.2,179.6,43.8,359.4,76.3,537.9,11.9,65.3,24.5,130.5,37.4,195.4,10.8,54.2,21.8,108.2,32.9,161.9,11.8,57.3,26.4,114,38.1,171.4l-230.9-232.2-42.7,46.2,306.9,317h258.9c-.9-7,3.1-23.4-4.3-26.9ZM1923.7,2994.6l-15.5,71.3,108.1,112.4,43.3-43.3-135.9-140.4Z"/>
  <path d="M2425.1,1186.9l-15.8,71.4c26.9,32.5,58.1,61.4,82.4,96l17.9-71.4-84.5-96h0Z"/>
  <path d="M2425.1,2909.1l-15.8-71.4c26.9-32.5,58.1-61.4,82.4-96l17.9,71.4-84.5,96h0Z"/>
  <path d="M2303,2038v20c-114.9,0-208.3,93.5-208.3,208.3h-20c0-114.9-93.5-208.3-208.4-208.3v-20c114.9,0,208.4-93.5,208.4-208.4h20c0,114.9,93.5,208.4,208.3,208.4Z"/>
</svg>