<svg width="4096" height="4096" viewBox="0 0 4096 4096" fill="none" xmlns="http://www.w3.org/2000/svg">
<path d="M3520.89 2546.6C3487.58 2546.6 3461.21 2520.23 3461.21 2486.91C3461.21 2453.6 3487.58 2428.62 3520.89 2428.62C3554.21 2428.62 3579.19 2453.6 3579.19 2486.91C3579.19 2520.23 3554.21 2546.6 3520.89 2546.6Z" fill="white"/>
<path d="M3579.19 2486.91C3579.19 2453.6 3554.21 2428.62 3520.89 2428.62C3487.58 2428.62 3461.21 2453.6 3461.21 2486.91C3461.21 2520.23 3487.58 2546.6 3520.89 2546.6C3554.21 2546.6 3579.19 2520.23 3579.19 2486.91ZM3587.19 2486.91C3587.19 2524.4 3558.87 2554.6 3520.89 2554.6C3483.16 2554.6 3453.21 2524.64 3453.21 2486.91C3453.21 2448.94 3483.41 2420.62 3520.89 2420.62C3558.63 2420.62 3587.19 2449.18 3587.19 2486.91Z" fill="white"/>
<path d="M2800.59 2542.44L2785.32 2299.53L2808.92 2296.76C2838.06 2438.33 2907.47 2521.62 3033.78 2521.62C3137.88 2521.62 3207.28 2464.71 3207.28 2367.55C3207.28 2278.71 3147.59 2228.74 3017.12 2187.1C2883.87 2144.07 2797.81 2088.55 2797.81 1983.06C2797.81 1878.96 2881.09 1802.62 3015.73 1802.62C3096.24 1802.62 3140.65 1834.54 3165.64 1834.54C3185.07 1834.54 3189.23 1813.72 3187.85 1791.52L3207.28 1788.74L3260.02 2023.32L3236.43 2027.48C3203.11 1910.89 3128.16 1827.6 3011.57 1827.6C2922.73 1827.6 2861.66 1873.41 2861.66 1955.3C2861.66 2019.15 2900.52 2074.67 3050.43 2121.87C3207.28 2171.83 3272.51 2244.01 3272.51 2342.56C3272.51 2468.87 3165.64 2546.6 3035.16 2546.6C2936.61 2546.6 2885.26 2502.18 2851.94 2502.18C2831.12 2502.18 2820.02 2517.45 2820.02 2541.05L2800.59 2542.44Z" fill="white"/>
<path d="M2816.75 2295.14C2831.16 2365.14 2855.34 2419.73 2890.7 2456.75C2925.82 2493.53 2972.58 2513.62 3033.78 2513.62V2521.62L3032.3 2521.61C2906.92 2520.96 2837.95 2437.78 2808.92 2296.76L2785.32 2299.53L2800.59 2542.44L2820.02 2541.05C2820.02 2517.45 2831.12 2502.18 2851.94 2502.18L2852.73 2502.19C2885.8 2502.87 2936.58 2545.91 3032.86 2546.59L3035.16 2546.6C3165.64 2546.6 3272.51 2468.87 3272.51 2342.56C3272.51 2244.78 3208.29 2172.96 3054.09 2123.04L3050.43 2121.87C2900.52 2074.67 2861.66 2019.15 2861.66 1955.3C2861.66 1873.41 2922.73 1827.6 3011.57 1827.6L3012.93 1827.61C3127.84 1828.25 3202.07 1910.04 3235.64 2024.75L3236.43 2027.48L3260.02 2023.32L3207.28 1788.74L3187.85 1791.52C3189.23 1813.72 3185.07 1834.54 3165.64 1834.54V1826.54C3168.98 1826.54 3171.17 1825.68 3172.74 1824.52C3174.38 1823.3 3175.91 1821.33 3177.16 1818.3C3179.75 1812.02 3180.53 1802.74 3179.86 1792.02L3179.4 1784.64L3213.46 1779.78L3269.67 2029.74L3230.72 2036.61L3228.73 2029.68C3195.97 1915 3123.22 1835.6 3011.57 1835.6C2968.43 1835.6 2932.94 1846.73 2908.38 1866.92C2884.02 1886.96 2869.66 1916.53 2869.66 1955.3C2869.66 1985.28 2878.65 2012.99 2905.42 2039.1C2932.14 2065.17 2976.94 2090 3049.36 2113.13L3052.83 2114.23L3052.85 2114.24L3052.86 2114.24C3131.91 2139.43 3188.81 2170.48 3226 2208.39C3263.44 2246.56 3280.51 2291.27 3280.51 2342.56C3280.51 2408.19 3252.66 2461.44 3207.83 2498.14C3163.14 2534.72 3101.92 2554.6 3035.16 2554.6C2984.6 2554.6 2946.12 2543.18 2916.26 2531.87C2908.82 2529.06 2901.91 2526.25 2895.54 2523.64C2889.14 2521.02 2883.34 2518.64 2877.94 2516.61C2866.99 2512.48 2858.71 2510.18 2851.94 2510.18C2843.68 2510.18 2838.13 2513.1 2834.44 2517.75C2830.54 2522.64 2828.02 2530.38 2828.02 2541.05V2548.5L2793.11 2550.99L2776.86 2292.47L2815.27 2287.95L2816.75 2295.14ZM3199.28 2367.55C3199.28 2325.27 3185.22 2292.73 3155.7 2265.51C3125.77 2237.91 3079.58 2215.44 3014.69 2194.72L3014.67 2194.72L3014.66 2194.72C2947.75 2173.11 2891.71 2148.08 2852.32 2114.6C2812.56 2080.81 2789.81 2038.41 2789.81 1983.06C2789.81 1928.74 2811.61 1881.38 2851.09 1847.72C2890.48 1814.13 2946.93 1794.62 3015.73 1794.62C3057.1 1794.62 3089.21 1802.84 3114 1810.98C3120.18 1813.01 3125.9 1815.04 3131.14 1816.91C3136.43 1818.8 3141.16 1820.51 3145.54 1821.97C3154.47 1824.96 3160.83 1826.54 3165.64 1826.54V1834.54L3165.05 1834.54C3140.15 1834.05 3096.3 1803.11 3017.61 1802.63L3015.73 1802.62C2881.09 1802.62 2797.81 1878.96 2797.81 1983.06L2797.82 1984.3C2798.48 2088.99 2884.39 2144.24 3017.12 2187.1C3147.59 2228.74 3207.28 2278.71 3207.28 2367.55L3207.27 2369.82C3206.19 2465.59 3137.06 2521.62 3033.78 2521.62V2513.62C3084.43 2513.62 3125.77 2499.77 3154.32 2474.98C3182.73 2450.3 3199.28 2414.09 3199.28 2367.55Z" fill="white"/>
<path d="M2202.28 2498.02C2286.95 2498.02 2311.94 2481.36 2311.94 2320.35V1920.6H2202.28V1897.01C2267.52 1897.01 2338.31 1863.69 2359.13 1802.62H2385.5V1974.73H2389.67C2438.25 1887.29 2509.04 1808.17 2588.15 1808.17C2635.35 1808.17 2667.27 1835.93 2667.27 1872.02C2667.27 1898.39 2649.23 1919.21 2622.86 1919.21C2586.77 1919.21 2572.89 1877.57 2532.63 1877.57C2479.89 1877.57 2429.92 1938.65 2385.5 2028.87V2320.35C2385.5 2481.36 2402.16 2498.02 2496.54 2498.02H2522.92V2521.62H2202.28V2498.02Z" fill="white"/>
<path d="M2385.5 2320.35V2028.87C2429.92 1938.65 2479.89 1877.57 2532.63 1877.57L2533.57 1877.58C2572.79 1878.22 2586.83 1918.57 2622.01 1919.21L2622.86 1919.21C2648.82 1919.21 2666.71 1899.04 2667.26 1873.25L2667.27 1872.02C2667.27 1835.93 2635.35 1808.17 2588.15 1808.17C2509.04 1808.17 2438.25 1887.29 2389.67 1974.73H2385.5V1802.62H2359.13C2338.31 1863.69 2267.52 1897.01 2202.28 1897.01V1920.6H2311.94V2320.35L2311.93 2324.1C2311.54 2481.62 2286.29 2498.02 2202.28 2498.02V2521.62H2522.92V2498.02H2496.54V2490.02H2530.92V2529.62H2194.28V2490.02H2202.28C2244.91 2490.02 2268.07 2485.53 2282.29 2465.01C2289.7 2454.31 2295.22 2438.51 2298.8 2414.84C2302.38 2391.23 2303.94 2360.47 2303.94 2320.35V1928.6H2194.28V1889.01H2202.28C2265.65 1889.01 2332.27 1856.61 2351.56 1800.04L2353.41 1794.62H2393.5V1952.12C2415.94 1914.81 2442.47 1879.75 2472.07 1852.75C2506.53 1821.31 2545.84 1800.17 2588.15 1800.17C2638.26 1800.17 2675.27 1830.14 2675.27 1872.02C2675.27 1902.16 2654.27 1927.21 2622.86 1927.21C2601.54 1927.21 2586.87 1914.69 2574.31 1904.64C2561.22 1894.17 2549.67 1885.57 2532.63 1885.57C2509.49 1885.57 2485.79 1898.99 2461.81 1924.83C2438.22 1950.25 2415.31 1986.7 2393.5 2030.74V2320.35C2393.5 2360.55 2394.55 2391.36 2397.52 2415.04C2400.5 2438.81 2405.33 2454.55 2412.32 2465.17C2425.62 2485.42 2448.75 2490.02 2496.54 2490.02V2498.02L2492.18 2498.01C2403.08 2497.47 2386.03 2479.43 2385.52 2327.79L2385.5 2320.35Z" fill="white"/>
<path d="M1437.65 2546.6C1372.41 2546.6 1336.32 2503.57 1336.32 2427.23C1336.32 2334.23 1390.45 2224.58 1475.12 2098.27C1434.87 1951.14 1371.02 1785.96 1309.95 1644.39L1282.19 1740.16C1241.94 1874.8 1189.19 2035.81 1122.57 2167.67C1015.69 2378.65 875.498 2546.6 708.935 2546.6C585.401 2546.6 516 2454.99 516 2356.44C516 2253.73 589.565 2184.33 653.414 2152.4L660.354 2166.28C622.878 2188.49 567.357 2249.56 567.357 2328.68C567.357 2399.47 611.774 2474.42 721.427 2474.42C856.065 2474.42 979.599 2361.99 1089.25 2157.95C1165.59 2014.99 1221.12 1853.98 1257.2 1733.22L1291.9 1616.63H1176.7C1012.91 1616.63 833.857 1691.58 833.857 1867.86C833.857 1921.99 850.513 1981.67 889.378 2044.14L875.498 2055.24C824.141 1990 794.992 1915.05 794.992 1841.48C794.992 1677.7 935.183 1550 1189.19 1550H1350.2C1401.56 1661.04 1479.29 1845.65 1533.42 2020.54C1644.46 1865.08 1817.97 1667.98 1958.16 1550H2156.64V1572.21C2063.64 1572.21 2030.33 1588.86 2001.18 1749.88L1883.2 2403.63C1873.49 2454.99 1881.81 2481.36 1909.57 2481.36C1938.72 2481.36 1977.59 2450.83 2024.78 2392.53L2034.5 2405.02C1980.36 2485.53 1930.39 2546.6 1870.71 2546.6C1827.68 2546.6 1799.92 2513.29 1799.92 2460.54C1799.92 2439.72 1804.08 2410.57 1809.64 2377.26L1949.83 1588.86C1823.52 1701.29 1655.57 1890.07 1541.75 2051.08C1573.67 2156.57 1594.49 2257.89 1594.49 2334.23C1594.49 2479.98 1518.15 2546.6 1437.65 2546.6ZM1364.08 2423.07C1364.08 2479.98 1389.07 2516.06 1427.93 2516.06C1483.45 2516.06 1515.38 2441.11 1515.38 2342.56C1515.38 2281.49 1502.88 2209.31 1483.45 2131.58C1415.44 2234.3 1364.08 2337.01 1364.08 2423.07Z" fill="white"/>
<path d="M1507.38 2342.56C1507.38 2287.1 1496.89 2221.99 1480.06 2151.4C1417.24 2248.74 1372.08 2343.8 1372.08 2423.07C1372.08 2450.48 1378.12 2471.98 1388.02 2486.37C1397.75 2500.5 1411.33 2508.06 1427.93 2508.06V2516.06L1427.02 2516.06C1388.98 2515.5 1364.47 2480.09 1364.09 2424.4L1364.08 2423.07C1364.08 2337.01 1415.44 2234.29 1483.45 2131.58C1502.88 2209.31 1515.38 2281.49 1515.38 2342.56C1515.38 2441.11 1483.45 2516.06 1427.93 2516.06V2508.06C1451.36 2508.06 1471.03 2492.43 1485.26 2462.8C1499.49 2433.2 1507.38 2391.13 1507.38 2342.56ZM2156.64 1550H1958.16C1817.97 1667.98 1644.46 1865.08 1533.42 2020.54C1479.29 1845.65 1401.56 1661.04 1350.2 1550H1189.19V1542H1355.32L1357.46 1546.64C1407.41 1654.65 1482.29 1832.16 1536.28 2002.88C1647.82 1849.17 1816.07 1659.12 1953 1543.88L1955.24 1542H2164.64V1580.21H2156.64C2110.11 1580.21 2081.76 1584.57 2060.71 1606.24C2039.02 1628.57 2023.66 1670.62 2009.06 1751.29L2009.06 1751.3L1891.08 2405.05L1891.07 2405.09L1891.06 2405.12C1886.26 2430.5 1886.26 2448.24 1889.92 2459.23C1891.69 2464.52 1894.18 2467.87 1897.06 2469.96C1899.94 2472.04 1903.92 2473.36 1909.57 2473.36V2481.36L1908.93 2481.36C1882.11 2480.96 1873.82 2455.41 1882.76 2406.02L1883.2 2403.63L2001.18 1749.88C2030.33 1588.86 2063.65 1572.21 2156.64 1572.21V1550ZM567.356 2328.68C567.356 2250.18 622.014 2189.45 659.473 2166.81L660.354 2166.28L653.414 2152.4C589.565 2184.33 516 2253.73 516 2356.44C516 2454.61 584.86 2545.88 707.49 2546.6L708.936 2546.6C874.197 2546.6 1013.5 2381.26 1120.05 2172.61L1122.57 2167.67C1187.11 2039.93 1238.63 1884.83 1278.38 1752.86L1282.19 1740.16L1309.95 1644.39C1371.02 1785.96 1434.87 1951.14 1475.12 2098.27C1390.45 2224.58 1336.32 2334.23 1336.32 2427.23L1336.33 2429.01C1336.89 2504.24 1372.92 2546.6 1437.65 2546.6C1518.15 2546.6 1594.49 2479.97 1594.49 2334.23C1594.49 2257.89 1573.67 2156.57 1541.75 2051.08C1655.57 1890.07 1823.52 1701.29 1949.83 1588.86L1809.64 2377.26C1804.08 2410.57 1799.92 2439.72 1799.92 2460.54L1799.93 2461.78C1800.35 2513.4 1827.58 2546.08 1869.7 2546.59L1870.71 2546.6C1930.39 2546.6 1980.36 2485.53 2034.5 2405.02L2024.78 2392.53C1977.59 2450.83 1938.72 2481.36 1909.57 2481.36V2473.36C1921.5 2473.36 1936.76 2467.01 1955.51 2452.48C1974.09 2438.09 1995.16 2416.4 2018.56 2387.5L2024.91 2379.66L2044.37 2404.68L2041.13 2409.49C2014.04 2449.78 1987.6 2485.82 1960.19 2511.81C1932.77 2537.8 1903.48 2554.6 1870.71 2554.6C1846.96 2554.6 1826.94 2545.32 1813.01 2528.44C1799.21 2511.73 1791.92 2488.25 1791.92 2460.54C1791.92 2438.96 1796.21 2409.17 1801.75 2375.95L1801.75 2375.9L1801.76 2375.86L1937.86 1610.47C1815.17 1722.99 1658.83 1899.92 1550.54 2052.51C1581.9 2156.92 1602.49 2257.63 1602.49 2334.23C1602.49 2408.46 1583.04 2463.53 1552.4 2500.2C1521.69 2536.94 1480.21 2554.6 1437.65 2554.6C1403.16 2554.6 1375.4 2543.15 1356.41 2520.71C1337.6 2498.48 1328.32 2466.54 1328.32 2427.23C1328.32 2332.35 1382.92 2221.92 1466.44 2096.87C1428.22 1958.19 1369.18 1803.62 1311.41 1668.09L1289.87 1742.39L1289.86 1742.42L1289.85 1742.45C1249.58 1877.14 1196.67 2038.74 1129.71 2171.28L1129.7 2171.29C1076.06 2277.17 1013.83 2372.74 943.753 2441.94C873.675 2511.14 795.082 2554.6 708.936 2554.6C580.454 2554.6 508 2458.86 508 2356.44C508 2249.51 584.535 2177.9 649.837 2145.25L656.992 2141.67L670.841 2169.37L664.433 2173.16C628.619 2194.39 575.356 2253.18 575.356 2328.68C575.356 2362.49 585.971 2396.9 609.22 2422.75C632.32 2448.43 668.563 2466.42 721.428 2466.42V2474.42L718.869 2474.41C611.931 2473.26 568.049 2400.08 567.365 2330.34L567.356 2328.68ZM786.992 1841.48C786.992 1757.11 823.187 1681.93 891.901 1628.03C960.471 1574.24 1060.92 1542 1189.19 1542V1550C935.183 1550 794.992 1677.7 794.992 1841.48C794.992 1915.05 824.141 1990 875.498 2055.24L889.378 2044.14C851.121 1982.65 834.383 1923.86 833.869 1870.4L833.857 1867.86C833.857 1691.58 1012.91 1616.63 1176.7 1616.62H1291.9L1257.2 1733.22C1221.12 1853.98 1165.59 2014.99 1089.25 2157.95C979.599 2361.99 856.066 2474.42 721.428 2474.42V2466.42C851.241 2466.42 972.744 2357.85 1082.21 2154.17C1158.17 2011.89 1213.51 1851.48 1249.54 1730.94L1281.18 1624.62H1176.7C1095.85 1624.63 1011.73 1643.15 948.098 1682.92C884.769 1722.5 841.857 1782.95 841.857 1867.86C841.857 1920.3 857.983 1978.54 896.171 2039.91L899.925 2045.94L874.199 2066.52L869.212 2060.19C816.96 1993.81 786.992 1917.16 786.992 1841.48Z" fill="white"/>
</svg>
